<?xml version="1.0" encoding="utf-8"?>
<!-- Uploaded to: SVG Repo, www.svgrepo.com, Generator: SVG Repo Mixer Tools -->
<svg width="800px" height="800px" viewBox="0 0 20 20" xmlns="http://www.w3.org/2000/svg">
  <g id="add-user-6" transform="translate(-2 -2)">
    <path id="secondary" fill="#2ca9bc" d="M10,13h2a7,7,0,0,1,7,7h0a1,1,0,0,1-1,1H4a1,1,0,0,1-1-1H3a7,7,0,0,1,7-7Z"/>
    <path id="primary" d="M15.59,10A5,5,0,1,1,11,3a5.11,5.11,0,0,1,2,.41" fill="none" stroke="#000000" stroke-linecap="round" stroke-linejoin="round" stroke-width="2"/>
    <path id="primary-2" data-name="primary" d="M21,5H17m2-2V7m-7,6H10a7,7,0,0,0-7,7H3a1,1,0,0,0,1,1H18a1,1,0,0,0,1-1h0a7,7,0,0,0-7-7Z" fill="none" stroke="#000000" stroke-linecap="round" stroke-linejoin="round" stroke-width="2"/>
  </g>
</svg>